# xmcd
#
# Track frame offsets:
#	150
#	11289
#	23680
#	36602
#	50850
#	60437
#	73333
#	84795
#	97220
#	111692
#	124391
#	135199
#	146028
#	159505
#	173266
#	187189
#	197704
#	209876
#	220394
#	230990
#	245061
#	255726
#	269317
#	278762
#	289193
#
# Disc length: 4024
#
# Revision: 1
# Processed by: cddbd v1.5.1PL0 Copyright (c) Steve Scherf et al.
# Submitted via: EasyCDDAExtractor 4.6.0.1
# Normalized: r0:TDELIM( - )
#
DISCID=920fb619
DTITLE=Various Artist - Forever DooWop  Vol 05
DYEAR=1900
DGENRE=Blues
TTITLE0=Albert Stone - Don't Believe Him Dona
TTITLE1=Spaniels - Goodnight Sweetheart, Goodnight
TTITLE2=El Dorados - This Is The Night
TTITLE3=Teardrops - The Stars Are Out Tonight
TTITLE4=Chuck-A-Lucks - Heaven Knows
TTITLE5=Charms (Otis Williams and the) - Thank You Mr. DJ
TTITLE6=Timetones - Pretty Pretty Girl
TTITLE7=Moonglows - We Go Together
TTITLE8=Moonglows - Sincerely
TTITLE9=Moonglows - Secret Love
TTITLE10=Empires - Love You So Bad
TTITLE11=Daryl Petty - Flaming Love
TTITLE12=Cadillacs - Gloria
TTITLE13=Orioles - It's Too Soon To Know
TTITLE14=Ink Spots - If I Didn't Care
TTITLE15=Kingsmen - Don't Say Your Sorry
TTITLE16=Flamingos - At Night
TTITLE17=Vibrations - All My Love Belongs To You
TTITLE18=Dubs - Don't Ask Me To Be Lonely
TTITLE19=Orioles - Crying In The Chapel
TTITLE20=Marcels - Blue Moon
TTITLE21=Jackie Wilson - Doggin' Around
TTITLE22=Delicados - Time And Time Again
TTITLE23=Leroy Parker - Cross My Heart
TTITLE24=Edsels - What Brought Us Together
EXTD=
EXTT0=
EXTT1=
EXTT2=
EXTT3=
EXTT4=
EXTT5=
EXTT6=
EXTT7=
EXTT8=
EXTT9=
EXTT10=
EXTT11=
EXTT12=
EXTT13=
EXTT14=
EXTT15=
EXTT16=
EXTT17=
EXTT18=
EXTT19=
EXTT20=
EXTT21=
EXTT22=
EXTT23=
EXTT24=
PLAYORDER=
